<?xml version="1.0" standalone="no"?>
<!DOCTYPE svg PUBLIC "-//W3C//DTD SVG 20010904//EN"
 "http://www.w3.org/TR/2001/REC-SVG-20010904/DTD/svg10.dtd">
<svg version="1.0" xmlns="http://www.w3.org/2000/svg"
 width="640.000000pt" height="640.000000pt" viewBox="0 0 640.000000 640.000000"
 preserveAspectRatio="xMidYMid meet">
<metadata>
Created by potrace 1.11, written by Peter Selinger 2001-2013
</metadata>
<g transform="translate(0.000000,640.000000) scale(0.100000,-0.100000)"
fill="#000000" stroke="none">
<path d="M2850 6134 c-19 -2 -80 -9 -135 -15 -315 -32 -696 -144 -976 -284
-95 -48 -289 -164 -374 -224 -197 -139 -413 -337 -560 -514 -380 -458 -601
-970 -671 -1551 -21 -170 -21 -508 -1 -676 64 -526 258 -1011 572 -1425 279
-370 606 -642 1025 -854 418 -212 841 -311 1325 -311 1039 1 1974 540 2525
1454 l23 39 -24 -5 c-13 -3 -121 -25 -241 -48 l-216 -43 -56 -72 c-120 -157
-311 -340 -503 -484 -340 -254 -814 -436 -1252 -481 -131 -13 -389 -13 -522 0
-881 87 -1659 624 -2055 1420 -82 166 -191 460 -170 460 2 0 250 -124 550
-276 300 -152 546 -273 546 -270 0 3 -15 67 -34 143 -69 283 -84 514 -38 615
20 45 67 96 79 85 3 -4 1 -31 -5 -59 -71 -332 48 -803 252 -997 89 -83 113
-91 305 -91 l163 0 37 -38 c50 -51 85 -66 231 -96 317 -65 452 -62 1095 28
1369 189 2153 342 2306 450 32 22 77 92 89 137 15 54 15 167 0 216 -12 38 -11
47 9 92 51 119 11 262 -95 343 l-54 40 0 78 0 78 51 32 c146 90 229 238 229
410 0 161 -75 303 -184 350 -32 14 -163 27 -576 61 l-535 43 -40 45 c-72 81
-107 109 -179 145 -134 65 -164 68 -627 73 l-416 5 -145 166 c-191 219 -189
217 -283 262 -104 50 -226 85 -400 115 -197 34 -346 45 -606 45 -641 0 -1091
-97 -1468 -316 -76 -44 -76 -44 15 107 254 423 619 758 1065 977 252 124 447
189 699 232 564 95 1087 18 1599 -235 381 -189 693 -458 954 -822 132 -182
267 -445 332 -643 15 -47 32 -90 36 -96 8 -10 355 -41 364 -32 7 7 -55 206
-106 340 -207 542 -586 1022 -1074 1360 -378 262 -807 427 -1285 493 -109 15
-494 28 -570 19z m-405 -1599 c58 -26 91 -55 167 -145 68 -80 188 -240 188
-250 0 -21 -42 -29 -215 -39 -454 -28 -829 -66 -957 -97 -38 -9 -74 -14 -82
-11 -58 23 -98 247 -66 367 31 113 171 163 540 190 295 21 349 20 425 -15z
m410 25 c159 -11 320 -43 400 -79 63 -29 97 -63 263 -262 72 -86 89 -118 55
-104 -10 4 -140 9 -289 10 -226 2 -276 6 -302 19 -17 9 -90 83 -161 164 -71
82 -155 171 -185 200 -31 28 -56 53 -56 56 0 9 125 7 275 -4z m-1531 -178 c32
-61 47 -297 24 -373 -13 -46 -24 -48 -89 -13 -48 27 -48 27 -42 70 5 38 2 46
-22 68 -84 78 -197 -35 -120 -118 22 -23 33 -27 68 -25 42 3 107 -22 107 -40
0 -27 -415 -73 -502 -57 -20 4 -38 12 -41 19 -9 24 32 119 81 186 57 78 132
141 256 214 117 69 182 96 228 97 31 0 40 -5 52 -28z m3354 -545 c98 -150 137
-336 128 -607 -3 -96 -8 -188 -12 -203 l-7 -28 229 7 c240 7 413 -4 476 -31
148 -62 191 -169 192 -475 1 -165 1 -165 -29 -218 -32 -58 -67 -92 -125 -122
-27 -14 -239 -48 -809 -129 -819 -118 -812 -117 -890 -77 -108 57 -156 210
-156 501 0 201 14 254 90 332 39 40 62 55 105 67 30 8 222 41 425 72 204 31
372 58 374 60 3 2 15 50 28 107 56 246 35 531 -57 750 -15 37 -24 67 -19 67 5
0 31 -33 57 -73z m-2170 -72 c370 -25 616 -66 699 -116 72 -44 135 -139 168
-254 20 -68 23 -206 6 -279 -28 -117 -104 -221 -194 -265 -52 -25 -160 -32
-180 -12 -8 8 -2 11 22 11 100 0 201 78 241 185 44 122 37 244 -22 357 -93
177 -323 188 -429 20 -16 -26 -29 -38 -29 -29 0 18 48 115 76 154 13 19 14 24
3 27 -19 5 -427 53 -614 71 -394 39 -687 56 -1077 62 -225 3 -408 9 -408 13 0
11 143 38 265 51 288 30 1043 32 1473 4z m2967 -35 c116 -11 234 -22 263 -25
l53 -7 -20 -31 c-27 -46 -49 -125 -56 -209 -12 -135 -51 -198 -133 -216 -58
-13 -92 -3 -209 66 l-96 57 -18 82 c-10 45 -31 114 -48 155 -37 86 -38 112 -9
132 28 20 21 20 273 -4z m625 0 c25 0 81 -66 100 -118 27 -71 36 -199 21 -273
-16 -78 -66 -158 -116 -186 -42 -24 -99 -30 -110 -13 -4 6 5 10 20 10 97 0
168 179 130 325 -8 33 -24 71 -34 85 -26 36 -80 70 -110 70 -39 0 -87 -34
-110 -77 -24 -45 -28 -20 -6 34 20 47 59 99 91 120 28 18 83 33 102 27 8 -2
18 -4 22 -4z m-2501 -150 c162 -47 338 -138 359 -185 36 -78 1 -116 -138 -154
-115 -31 -176 -54 -201 -77 -15 -13 -16 -4 -15 128 1 129 -1 148 -22 193 -13
28 -40 67 -60 89 -28 28 -32 37 -17 33 11 -3 53 -15 94 -27z m2428 -22 c35
-29 56 -92 56 -168 0 -84 -12 -122 -51 -162 -33 -36 -79 -37 -115 -4 -26 24
-57 109 -57 157 0 112 60 208 122 195 17 -3 37 -11 45 -18z m-2950 -123 c50
-21 71 -41 101 -100 23 -43 26 -63 26 -140 1 -77 -3 -98 -26 -147 -35 -75 -89
-112 -163 -112 -73 0 -124 35 -160 108 -103 210 42 466 222 391z m2805 -445
l46 0 4 -65 c2 -40 -1 -66 -8 -69 -15 -6 -85 8 -110 22 -30 16 -45 37 -54 76
-10 43 -4 49 40 42 19 -3 56 -6 82 -6z m-4030 -159 c4 -4 1 -40 -8 -81 -21
-101 -13 -337 16 -465 39 -173 82 -279 138 -345 39 -45 59 -35 87 41 17 46 20
80 20 239 0 194 -16 302 -65 444 -10 31 -17 56 -15 56 2 0 19 -19 39 -43 29
-35 38 -59 55 -142 80 -397 9 -746 -139 -685 -87 36 -168 191 -220 425 -27
120 -37 357 -20 462 17 106 21 113 68 106 20 -3 40 -9 44 -12z m928 -91 c101
-25 281 -33 373 -17 l47 8 0 -73 c0 -40 7 -102 15 -137 10 -41 12 -68 6 -74
-14 -14 -161 9 -244 38 -95 32 -190 92 -274 170 -63 58 -113 119 -113 139 0 3
21 -3 48 -13 26 -10 90 -29 142 -41z m-1760 -80 c173 -17 325 -33 337 -36 18
-3 22 -10 18 -32 -2 -15 -7 -48 -10 -74 -4 -31 -11 -48 -20 -48 -14 0 -667
209 -674 216 -8 8 31 5 349 -26z m963 -57 c60 -67 97 -296 64 -393 -16 -46
-36 -44 -64 5 -49 88 -74 302 -44 378 12 31 22 34 44 10z m4127 -45 c-1 -62
-42 -91 -160 -112 -47 -8 -107 -16 -135 -18 l-50 -3 -3 47 -3 46 58 11 c32 7
103 22 158 35 137 32 135 32 135 -6z m-3659 -203 c362 -84 777 -107 1012 -57
48 10 91 16 96 12 13 -8 34 -141 24 -151 -13 -12 -136 -27 -311 -40 -165 -11
-391 -2 -557 22 -107 16 -297 60 -328 76 -50 25 -80 98 -61 147 8 20 -5 21
125 -9z"/>
<path d="M4750 2909 c-41 -4 -253 -35 -471 -68 -433 -65 -441 -67 -490 -141
-22 -32 -29 -56 -34 -123 -12 -154 24 -428 69 -515 19 -38 76 -64 135 -63 25
0 114 9 196 20 246 33 1175 185 1175 193 0 4 -15 5 -32 2 -96 -13 -1173 -105
-1201 -102 -17 2 305 48 717 103 496 66 754 104 763 113 18 19 16 32 -4 32
-10 0 -344 -29 -743 -65 -669 -60 -802 -70 -775 -59 6 2 351 48 768 103 417
55 762 103 767 106 18 11 11 35 -10 35 -10 0 -342 -29 -737 -65 -395 -36 -738
-64 -763 -64 -32 1 1444 206 1503 209 16 0 6 40 -11 40 -10 0 -339 -29 -732
-65 -393 -36 -735 -65 -760 -64 -25 1 301 48 724 105 423 57 773 107 777 111
5 5 4 14 0 22 -7 11 -137 2 -762 -53 -782 -69 -785 -69 -778 -61 4 4 1276 172
1447 191 34 3 64 9 66 13 2 3 -2 14 -9 24 -12 17 -48 15 -741 -48 -401 -36
-740 -64 -754 -63 -27 3 3 8 770 109 289 38 541 72 560 76 34 7 34 7 -20 14
-75 10 -517 8 -610 -2z"/>
<path d="M2920 5683 c-612 -28 -1188 -285 -1639 -732 -72 -71 -218 -243 -244
-288 -4 -6 30 2 75 19 316 115 585 156 1088 165 261 4 356 2 485 -11 284 -30
513 -86 683 -169 81 -39 87 -44 245 -225 l162 -184 162 4 c267 8 624 -8 718
-32 125 -32 231 -88 313 -168 l70 -69 183 -16 c101 -9 184 -15 185 -14 0 1
-19 54 -43 117 -88 232 -207 445 -367 655 -83 110 -341 366 -456 452 -383 288
-845 460 -1323 493 -128 9 -161 9 -297 3z"/>
</g>
</svg>
